<?xml version="1.0" encoding="UTF-8"?>
<svg xmlns="http://www.w3.org/2000/svg" version="1.1" xmlns:xlink="http://www.w3.org/1999/xlink" viewBox="0 0 857.6 241.8">
  <defs>
    <style>
      .cls-1 {
        font-family: Oswald-Bold, Oswald;
        font-size: 122.5px;
        font-weight: 700;
      }

      .cls-1, .cls-2 {
        fill: #b32235;
      }

      .cls-3 {
        font-family: Zaptron-Regular, Zaptron;
        font-size: 86px;
      }

      .cls-3, .cls-4 {
        fill: #003b91;
      }
    </style>
  </defs>
  <!-- Generator: Adobe Illustrator 28.6.0, SVG Export Plug-In . SVG Version: 1.2.0 Build 709)  -->
  <g>
    <g id="Layer_1">
      <text class="cls-1" transform="translate(211.2 210.7)"><tspan x="0" y="0">SWIPE</tspan></text>
      <path class="cls-4" d="M89.5,60.4c9.7-5.3,19.3-10.6,29-15.9,5-2.8,10-5.5,15.1-8.2,13.1-7.2,26.9-8.5,41.1-4.1,13.8,4.3,27.5,8.8,41.3,13.1,3.9,1.2,5.4,3.4,5.3,7.4-.1,14.8-.1,29.7,0,44.5,0,2.7-.9,4.1-3.3,5.3-19.6,10.4-40.5,15.2-62.7,14.6-10.5-.3-21.1,0-31.6,0-7.6,0-12.9-4.4-13.7-11.1-.8-6.4,3.3-12.2,10.4-14,12.2-3.2,24.5-6.2,36.7-9.2,2.4-.6,4.7-1.2,7.1-2.8-24.8-6.2-49.7-12.3-74.5-18.5,0-.3,0-.6-.1-1Z"/>
      <path class="cls-2" d="M167.9,143.4c1-5.7,2-10.9,2.8-16.2.3-2.1,1.1-3.2,3.4-3.3,3-.1,5.9-.7,9.5-1.1-1,5.8-1.9,11.3-2.9,16.7-2,11.4-4,22.8-6.1,34.2-1.8,9.7-9,14.7-18.7,13-39.1-6.9-78.2-13.8-117.2-20.7-11.6-2-16.3-8.7-14.3-20.2,4-22.9,8-45.9,12.1-68.8,2-11.2,8.8-15.8,20.1-14.1,25.3,3.8,49.8,10.7,74.6,16.7.4,0,.7.3,2,.9-4,1.1-7.4,1.7-10.5,2.9-5.6,2-11.1,1.6-16.8.5-16.9-3.2-33.8-6-50.7-9-5.4-.9-5.9-.6-6.9,4.9-.3,1.8-.6,3.6-1,5.8,9.1,1.6,18.1,3.2,27,4.8,7.3,1.3,14.6,2.6,21.9,3.9,4.4.8,5.5,2.4,4.8,6.8-.7,3.8-1.3,7.7-2.1,11.5-.9,5.1-2.3,6.1-7.5,5.2-14.6-2.5-29.2-5.1-43.8-7.7-1.4-.2-2.8-.4-4.5-.7-.7,3.8-1.3,7.4-2.1,11.6,42.3,7.5,84.4,14.9,126.9,22.4ZM164.6,161.7c-1.6-.4-2.7-.7-3.8-.9-38.4-6.8-76.9-13.6-115.3-20.3-7.9-1.4-7.9-1.3-9.2,6.6-.9,5.9-.6,6.3,5.3,7.4,26,4.6,52,9.2,78,13.8,12.4,2.2,24.8,4.4,37.3,6.6,2.6.4,5.1.8,5.8-2.7.7-3.3,1.2-6.6,1.8-10.4ZM90.8,104.6c0-2.9-2.4-5.5-5.3-5.6-3,0-5.6,2.2-5.7,5.2-.2,3.2,2.3,5.8,5.5,5.8,3,0,5.5-2.4,5.5-5.4ZM67.6,100.2c0-2.9-2.7-5.4-5.6-5.3-3,0-5.4,2.5-5.4,5.5,0,3.1,2.7,5.7,5.8,5.5,2.9-.2,5.3-2.8,5.2-5.7Z"/>
      <path class="cls-4" d="M226.6,74.2c0-7,0-14.1,0-21.1,0-4.5,1-5.5,5.5-5.6,6.9,0,13.8,0,20.7,0,4.1,0,5.3,1.2,5.3,5.4,0,14.1,0,28.1,0,42.2,0,4.7-1,5.7-5.7,5.8-6.6,0-13.3,0-19.9,0-5,0-5.8-.9-5.8-6,0-6.9,0-13.8,0-20.7ZM249.4,65.5c1.7-2.1,3.6-3.5,3.5-4.6-.2-1.4-2.1-2.6-3.2-3.9-1.2,1.2-3.1,2.3-3.5,3.7-.2,1.1,1.6,2.6,3.2,4.8ZM240.2,60.3c-2.5-1.5-4-3.2-5.4-3-1.2.1-3.2,2.5-3,3.4.3,1.4,2.2,3.1,3.6,3.3,1.1.2,2.5-1.7,4.8-3.6Z"/>
      <text class="cls-3" transform="translate(266.7 104.5)"><tspan x="0" y="0">WE</tspan></text>
      <image width="853" height="293" transform="translate(530.8 108.9) scale(.3)" xlink:href="C:\Users\clavi\Downloads\png-transparent-usa-text-with-flag-theme-illustration-flag-of-the-united-states-desktop-usa-gerb-blue-flag-text-removebg-preview.png"/>
      <rect class="cls-4" x="428.1" y="92.1" width="354.5" height="7.2"/>
    </g>
  </g>
</svg>